<?xml version="1.0" standalone="no"?>
<!DOCTYPE svg PUBLIC "-//W3C//DTD SVG 20010904//EN"
 "http://www.w3.org/TR/2001/REC-SVG-20010904/DTD/svg10.dtd">
<svg version="1.0" xmlns="http://www.w3.org/2000/svg"
 width="500.000000pt" height="500.000000pt" viewBox="0 0 500.000000 500.000000"
 preserveAspectRatio="xMidYMid meet">

<g transform="translate(0.000000,500.000000) scale(0.100000,-0.100000)"
fill="#000000" stroke="none">
<path d="M880 2550 l0 -810 375 0 375 0 0 810 0 810 -375 0 -375 0 0 -810z
m284 570 c122 -30 187 -40 246 -40 l80 0 0 -50 0 -50 -94 0 c-73 0 -126 -8
-239 -35 -80 -19 -150 -35 -156 -35 -6 0 -11 20 -11 49 l0 48 78 13 77 13 -45
8 c-122 22 -110 14 -110 69 0 28 2 50 4 50 2 0 78 -18 170 -40z m26 -255 c18
-16 20 -16 46 4 55 43 218 20 243 -35 6 -14 11 -63 11 -109 l0 -85 -250 0
-250 0 0 94 c0 133 22 158 133 152 28 -2 55 -10 67 -21z m71 -420 c114 -14
212 -25 218 -25 7 0 11 -26 11 -70 0 -83 30 -70 -251 -105 -273 -33 -251 -35
-247 23 l3 47 145 16 c151 16 155 23 20 34 -41 3 -96 8 -122 12 l-48 6 0 49 0
49 33 -6 c17 -3 125 -17 238 -30z m-71 -295 l0 -50 -42 0 c-51 0 -73 -12 -65
-34 5 -14 28 -16 157 -16 129 0 152 2 157 16 9 23 -15 34 -74 34 l-53 0 0 50
0 50 66 0 c111 0 157 -37 157 -128 0 -49 -16 -78 -56 -102 -28 -18 -51 -20
-189 -20 -184 0 -227 11 -252 65 -20 42 -20 78 1 122 20 44 60 62 136 63 l57
0 0 -50z"/>
<path d="M1267 2784 c-4 -4 -7 -16 -7 -26 0 -16 9 -18 71 -18 67 0 70 1 67 23
-3 20 -9 22 -63 25 -34 2 -64 0 -68 -4z"/>
<path d="M1070 2760 c0 -17 7 -20 48 -20 53 0 63 5 55 26 -3 9 -21 14 -54 14
-42 0 -49 -3 -49 -20z"/>
<path d="M2920 3018 c-55 -28 -85 -72 -100 -145 -25 -117 5 -186 137 -324 57
-60 105 -119 111 -138 25 -71 9 -131 -34 -131 -32 0 -44 31 -44 116 l0 64 -91
0 -92 0 6 -94 c9 -156 54 -224 164 -246 170 -36 268 44 280 227 10 138 -6 172
-148 319 -114 118 -120 127 -117 162 3 33 6 37 32 40 35 4 46 -10 46 -60 l0
-38 90 0 90 0 0 41 c0 107 -55 196 -135 218 -67 18 -145 14 -195 -11z"/>
<path d="M3410 3018 c-55 -28 -85 -72 -100 -145 -25 -117 5 -186 137 -324 57
-60 105 -119 111 -138 25 -71 9 -131 -34 -131 -32 0 -44 31 -44 116 l0 64 -91
0 -92 0 6 -94 c9 -156 54 -224 164 -246 170 -36 268 44 280 227 10 138 -6 172
-148 319 -114 118 -120 127 -117 162 3 33 6 37 32 40 35 4 46 -10 46 -60 l0
-38 90 0 90 0 0 41 c0 107 -55 196 -135 218 -67 18 -145 14 -195 -11z"/>
<path d="M1790 2575 l0 -455 90 0 90 0 0 210 0 210 40 0 40 0 0 -210 0 -210
90 0 90 0 0 455 0 455 -90 0 -90 0 0 -160 0 -160 -40 0 -40 0 0 160 0 160 -90
0 -90 0 0 -455z"/>
<path d="M2376 2988 c-4 -24 -22 -212 -41 -418 -20 -206 -38 -392 -41 -412
l-6 -38 91 0 91 0 0 38 c0 20 3 54 6 75 l7 37 52 0 52 0 7 -46 c3 -26 6 -60 6
-75 l0 -29 85 0 85 0 0 29 c0 17 -18 217 -40 446 -22 229 -40 420 -40 426 0 5
-64 9 -154 9 l-155 0 -5 -42z m196 -570 c-2 -5 -18 -8 -37 -8 -19 0 -36 3 -38
8 -4 7 28 451 33 462 2 3 13 -98 24 -225 12 -126 20 -233 18 -237z"/>
<path d="M3832 2588 c-24 -244 -42 -449 -42 -455 0 -9 24 -13 84 -13 96 0 96
0 96 98 l0 53 58 -3 57 -3 3 -40 c1 -22 5 -55 8 -72 l5 -33 86 0 86 0 -6 48
c-4 26 -22 220 -42 432 -20 212 -38 395 -41 408 -4 22 -7 22 -157 22 l-153 0
-42 -442z m218 71 c11 -118 20 -222 20 -231 0 -14 -9 -18 -40 -18 -48 0 -46
-17 -25 245 8 99 15 191 15 204 0 13 2 22 5 19 3 -3 15 -102 25 -219z"/>
<path d="M4330 2575 l0 -455 85 0 85 0 1 218 c0 119 4 208 8 197 4 -11 25
-109 47 -217 l38 -198 88 0 88 0 0 455 0 455 -85 0 -85 0 -2 -207 -3 -208 -40
205 -40 205 -93 3 -92 3 0 -456z"/>
</g>
</svg>
